<svg width="107" height="119" viewBox="0 0 107 119" fill="none" xmlns="http://www.w3.org/2000/svg">
<path d="M0 118.169V0.169098H16.5C19.6667 1.1691 28 3.9691 36 7.1691C46 11.1691 57 18.6691 57 22.6691C57 26.6691 50 30.1691 39.5 40.1691C31.1 48.1691 29 58.5 29 62.5C28 65.5 30 83.1691 29.5 89.6691C29.1 94.8691 23.6667 100.502 20.5 102.669C44.5 92.1691 57 87 70.5 73C81 56 78 45 72 34C66 23 51 13 49 12C49 12 40.5 7.00243 36 5.1691C34.5 4.6691 25 1.33576 21 0.169098C30.1667 -0.164236 50.8 -0.230902 60 2.1691C69.2 4.5691 74.1667 7.1691 75.5 8.1691C87.5 14.5 94.5 21 98.5 28C102.5 35 102.5 35.5 106 50L106.5 55V59V64L106 68.1691C106 72 103.8 81.7691 97 92.1691C90.2 102.569 80 109.5 75.5 111.5C70.3 115.1 56.3333 117.667 50.5 118.5L0 118.169Z" fill="white"/>
</svg>
